<svg width="128" height="128" viewBox="0 0 128 128" fill="none" xmlns="http://www.w3.org/2000/svg">
<path d="M119.65 102.09H8.35C5.95 102.09 4 100.14 4 97.7399V30.2799C4 27.8699 5.95 25.9099 8.37 25.9099H119.64C122.05 25.9099 124.01 27.8599 124.01 30.2799V97.7399C124.005 98.8939 123.544 99.9991 122.727 100.814C121.91 101.629 120.804 102.088 119.65 102.09Z" fill="#2E7D32"/>
<path d="M119.78 89.9099H8.22C7.66582 89.9099 7.11707 89.8008 6.60508 89.5887C6.09308 89.3766 5.62787 89.0658 5.23601 88.6739C4.44461 87.8825 4 86.8091 4 85.6899V30.2799C4 27.8699 5.95 25.9099 8.37 25.9099H119.64C122.05 25.9099 124.01 27.8599 124.01 30.2799V85.6899C124.006 86.8096 123.558 87.882 122.766 88.6728C121.973 89.4635 120.9 89.9083 119.78 89.9099Z" fill="#66BB6A"/>
<path d="M39.68 65.3701C39.68 64.1401 39.25 63.1001 38.39 62.2601C37.53 61.4201 36.07 60.6501 34.02 59.9701C31.17 59.1001 29.09 57.9701 27.79 56.5701C26.48 55.1701 25.83 53.3901 25.83 51.2401C25.83 49.0401 26.47 47.2401 27.75 45.8401C29.03 44.4301 30.79 43.6001 33.02 43.3301V39.8601C33.02 39.3501 33.44 38.9301 33.95 38.9301H35.08C35.59 38.9301 36.01 39.3501 36.01 39.8601V43.3501C38.26 43.6601 40.01 44.6001 41.26 46.1801C42.38 47.6001 43 49.4801 43.12 51.8301C43.14 52.2901 42.76 52.6701 42.3 52.6701H40.23C39.79 52.6701 39.45 52.3201 39.41 51.8801C39.3 50.3501 38.86 49.1101 38.09 48.1601C37.19 47.0501 35.98 46.4901 34.46 46.4901C32.87 46.4901 31.65 46.9001 30.81 47.7301C29.97 48.5501 29.54 49.7101 29.54 51.1801C29.54 52.5501 29.99 53.6401 30.88 54.4501C31.77 55.2601 33.24 56.0001 35.28 56.6601C37.32 57.3201 38.91 58.0501 40.06 58.8501C41.2 59.6501 42.05 60.5701 42.59 61.6301C43.13 62.6901 43.4 63.9301 43.4 65.3501C43.4 67.6101 42.72 69.4301 41.36 70.8101C40 72.1901 38.1 73.0101 35.65 73.2601V76.1601C35.65 76.6701 35.23 77.09 34.72 77.09H33.6C33.09 77.09 32.67 76.6701 32.67 76.1601V73.2601C30.18 73.0301 28.23 72.1501 26.82 70.6001C25.56 69.2201 24.86 67.4001 24.73 65.1501C24.7 64.6901 25.09 64.3101 25.55 64.3101H27.64C28.06 64.3101 28.42 64.6201 28.45 65.0401C28.56 66.5501 29.04 67.7401 29.89 68.6101C30.87 69.6101 32.25 70.1201 34.05 70.1201C35.8 70.1201 37.18 69.7001 38.19 68.8501C39.18 67.9801 39.68 66.8301 39.68 65.3701Z" fill="white"/>
<path d="M35.64 74.09L32.67 73.24L33.01 43.42V42.41L36 43.34L35.64 73.22V74.09Z" fill="white"/>
<path opacity="0.5" d="M84.78 76.41C94.9973 76.41 103.28 68.1273 103.28 57.91C103.28 47.6928 94.9973 39.41 84.78 39.41C74.5627 39.41 66.28 47.6928 66.28 57.91C66.28 68.1273 74.5627 76.41 84.78 76.41Z" fill="#2E7D32"/>
<path d="M106.45 33.1C107.31 38.5 111.59 42.78 116.99 43.64V72.18C111.59 73.04 107.31 77.32 106.45 82.72H21.42C20.32 77.61 16.16 73.67 11 72.85V44.31C16.63 43.42 21.03 38.82 21.63 33.1H106.45ZM108.29 31.1H19.69C19.7 31.32 19.71 31.54 19.71 31.77C19.71 37.68 14.92 42.47 9.01 42.47V74.7C14.69 74.7 19.34 79.13 19.69 84.73H108.3C108.3 78.82 113.09 74.03 119 74.03V41.8C113.08 41.8 108.29 37.01 108.29 31.1Z" fill="#2E7D32"/>
<path d="M53 25.9099H75.01V102.09H53V25.9099Z" fill="#FFECB3"/>
<path d="M53 89.91H75.01V102.09H53V89.91Z" fill="#FFC06C"/>
</svg>
