<svg width="328" height="330" viewBox="0 0 328 330" fill="none" xmlns="http://www.w3.org/2000/svg">
<g clip-path="url(#clip0_28_53)">
<path d="M157.08 78.278L78.3786 156.979C76.6816 158.676 73.9239 158.676 72.2268 156.979L24.5254 109.278C22.8212 107.573 22.8142 104.809 24.5254 103.097L103.205 24.4177C104.909 22.7135 107.674 22.7065 109.385 24.4177L157.087 72.1191C157.899 72.9384 158.355 74.046 158.353 75.2C158.352 76.354 157.894 77.4605 157.08 78.278Z" fill="#2E7D32"/>
<path d="M148.559 69.5735L69.6741 148.458C69.2823 148.85 68.8171 149.161 68.3051 149.373C67.7931 149.585 67.2443 149.694 66.6901 149.694C65.5709 149.694 64.4976 149.25 63.7062 148.458L24.5254 109.278C22.8212 107.573 22.8142 104.809 24.5254 103.097L103.205 24.4177C104.909 22.7135 107.674 22.7065 109.385 24.4177L148.566 63.5985C149.355 64.3932 149.797 65.4678 149.795 66.5874C149.794 67.7071 149.35 68.7807 148.559 69.5735Z" fill="#66BB6A"/>
<path d="M74.5673 108.86C73.6976 107.991 72.6581 107.559 71.4561 107.573C70.254 107.588 68.6771 108.075 66.7467 109.044C64.1163 110.444 61.8465 111.116 59.9373 111.045C58.021 110.982 56.3028 110.183 54.7825 108.662C53.2268 107.107 52.4066 105.381 52.3217 103.486C52.2298 101.584 52.8874 99.7528 54.2734 97.985L51.8197 95.5314C51.4591 95.1707 51.4591 94.5768 51.8197 94.2161L52.6187 93.4171C52.9794 93.0565 53.5733 93.0565 53.9339 93.4171L56.4017 95.8849C58.2119 94.5131 60.1141 93.9404 62.1152 94.1737C63.9112 94.3859 65.679 95.2768 67.4255 96.8537C67.765 97.1648 67.765 97.7022 67.4397 98.0274L65.976 99.4912C65.6648 99.8023 65.1769 99.7952 64.8375 99.5124C63.6779 98.5083 62.4899 97.9426 61.2737 97.8153C59.8524 97.6668 58.6009 98.1264 57.5261 99.2012C56.4018 100.326 55.829 101.478 55.8219 102.659C55.8078 103.833 56.324 104.957 57.3634 105.997C58.3322 106.965 59.4211 107.418 60.6232 107.361C61.8253 107.305 63.388 106.789 65.2972 105.813C67.2063 104.837 68.8468 104.229 70.2257 103.981C71.5975 103.741 72.8491 103.79 73.9804 104.158C75.1118 104.526 76.1795 105.212 77.1836 106.216C78.7817 107.814 79.5878 109.582 79.6019 111.519C79.6161 113.457 78.8524 115.38 77.2968 117.289L79.3474 119.34C79.708 119.7 79.708 120.294 79.3474 120.655L78.5554 121.447C78.1948 121.807 77.6008 121.807 77.2402 121.447L75.1896 119.396C73.2662 120.994 71.2651 121.751 69.1721 121.652C67.3053 121.567 65.5234 120.775 63.8405 119.276C63.494 118.972 63.5011 118.427 63.8264 118.102L65.3042 116.624C65.6012 116.327 66.075 116.292 66.3932 116.568C67.5387 117.558 68.7196 118.06 69.9358 118.074C71.3358 118.088 72.6723 117.473 73.9451 116.2C75.1825 114.963 75.8613 113.69 75.9745 112.375C76.0593 111.059 75.5997 109.893 74.5673 108.86Z" fill="white"/>
<path d="M77.8766 117.883L75.1754 119.382L54.3299 98.0558L53.6157 97.3416L56.3876 95.885L77.2614 117.268L77.8766 117.883Z" fill="white"/>
<path opacity="0.5" d="M114.264 84.7763C121.489 77.5516 121.489 65.838 114.264 58.6133C107.04 51.3886 95.326 51.3886 88.1013 58.6133C80.8766 65.838 80.8766 77.5516 88.1013 84.7763C95.326 92.001 107.04 92.001 114.264 84.7763Z" fill="#2E7D32"/>
<path d="M98.9625 38.8284C103.389 42.0387 109.442 42.0387 113.868 38.8284L134.049 59.0093C130.839 63.4357 130.839 69.4886 134.049 73.9151L73.9239 134.04C69.5327 131.205 63.8052 131.36 59.5767 134.429L39.3958 114.248C42.7475 109.638 42.6061 103.274 38.9857 98.8052L98.9625 38.8284ZM98.8494 36.1131L36.1997 98.7628C36.3623 98.9113 36.525 99.0598 36.6876 99.2224C40.8666 103.401 40.8666 110.176 36.6876 114.355L59.4777 137.145C63.494 133.128 69.9146 132.973 74.1219 136.685L136.779 74.0282C132.6 69.8492 132.6 63.0751 136.779 58.8961L113.989 36.1061C109.802 40.2921 103.028 40.2921 98.8494 36.1131Z" fill="#2E7D32"/>
<path d="M56.0835 71.5393L71.647 55.9759L125.514 109.843L109.951 125.407L56.0835 71.5393Z" fill="#FFECB3"/>
<path d="M101.338 116.794L116.902 101.231L125.514 109.843L109.951 125.407L101.338 116.794Z" fill="#FFC06C"/>
</g>
<g clip-path="url(#clip1_28_53)">
<path d="M106.882 287.801L174.764 219.919L184.31 229.465L116.428 297.347L106.882 287.801Z" fill="#428BC1"/>
<path d="M66.577 247.496L134.459 179.614L174.764 219.919L106.882 287.801L66.577 247.496Z" fill="#42ADE2"/>
<path d="M132.338 262.345L149.309 245.374L158.854 254.92L141.884 271.891L132.338 262.345Z" fill="#94989B"/>
<path d="M75.0623 247.496L134.459 188.099L166.279 219.919L106.882 279.316L75.0623 247.496Z" fill="#428BC1"/>
<path d="M81.4263 247.496L134.459 194.463L159.915 219.919L106.882 272.952L81.4263 247.496Z" fill="#42ADE2"/>
<path d="M142.945 228.404C147.631 223.718 147.631 216.12 142.945 211.433C138.258 206.747 130.66 206.747 125.974 211.433C121.288 216.12 121.288 223.718 125.974 228.404C130.66 233.09 138.258 233.09 142.945 228.404Z" fill="#428BC1"/>
<path d="M92.0329 222.04L109.003 205.069L149.309 245.375L132.338 262.345L92.0329 222.04Z" fill="#D0D0D0"/>
<path d="M113.564 253.541C111.231 255.875 107.837 256.723 104.867 255.875L111.973 248.769L109.852 246.647L102.003 254.496C101.579 254.284 101.155 253.86 100.836 253.541C100.518 253.223 100.094 252.799 99.8817 252.375L107.731 244.526L105.609 242.405L98.5029 249.511C97.7604 246.435 98.5029 243.147 100.836 240.814C101.261 240.389 101.685 239.965 102.215 239.647L100.624 236.995C99.9878 237.419 99.2453 237.95 98.6089 238.586C95.0027 242.192 94.0481 247.602 95.8512 251.951L92.9874 254.814L95.1088 256.936L97.4422 254.602C97.7604 254.92 98.0786 255.451 98.3968 255.769C98.715 256.087 99.1393 256.511 99.5635 256.723L97.2301 259.057L99.3514 261.178L102.215 258.314C106.564 260.118 111.973 259.163 115.58 255.557C116.216 254.92 116.64 254.284 117.17 253.541L114.519 251.951C114.519 252.587 113.989 253.117 113.564 253.541Z" fill="white"/>
</g>
<g clip-path="url(#clip2_28_53)">
<path d="M302.744 113.633L224.043 192.334C222.346 194.031 219.588 194.032 217.891 192.334L170.189 144.633C168.485 142.929 168.478 140.164 170.189 138.453L248.869 59.7731C250.573 58.069 253.338 58.0619 255.049 59.7731L302.751 107.475C303.563 108.294 304.019 109.401 304.017 110.555C304.016 111.709 303.558 112.816 302.744 113.633Z" fill="#9E7E54"/>
<path d="M294.223 104.929L215.338 183.814C214.946 184.206 214.481 184.517 213.969 184.729C213.457 184.941 212.908 185.05 212.354 185.05C211.235 185.05 210.162 184.605 209.37 183.814L170.189 144.633C168.485 142.929 168.478 140.164 170.189 138.453L248.869 59.7731C250.573 58.069 253.338 58.0619 255.049 59.7731L294.23 98.9539C295.019 99.7486 295.461 100.823 295.459 101.943C295.458 103.063 295.014 104.136 294.223 104.929Z" fill="#F7B95E"/>
<path opacity="0.5" d="M259.928 120.132C267.153 112.907 267.153 101.194 259.928 93.9688C252.704 86.7441 240.99 86.7441 233.765 93.9688C226.541 101.194 226.541 112.907 233.765 120.132C240.99 127.356 252.704 127.356 259.928 120.132Z" fill="#9E7E54"/>
<path d="M244.626 74.1839C249.053 77.3942 255.106 77.3942 259.532 74.1839L279.713 94.3647C276.503 98.7912 276.503 104.844 279.713 109.271L219.588 169.396C215.197 166.56 209.469 166.716 205.241 169.785L185.06 149.604C188.412 144.994 188.27 138.63 184.65 134.161L244.626 74.1839ZM244.513 71.4686L181.864 134.118C182.026 134.267 182.189 134.415 182.352 134.578C186.531 138.757 186.531 145.531 182.352 149.71L205.142 172.5C209.158 168.484 215.579 168.328 219.786 172.04L282.443 109.384C278.264 105.205 278.264 98.4306 282.443 94.2516L259.653 71.4615C255.466 75.6476 248.692 75.6476 244.513 71.4686Z" fill="#9E7E54"/>
<path d="M201.748 106.895L217.311 91.3314L271.178 145.199L255.615 160.762L201.748 106.895Z" fill="#FFECB3"/>
<path d="M210.997 139.45L205.983 125.725C205.842 125.343 205.941 124.905 206.231 124.615L208.387 122.458C208.727 122.119 209.292 122.26 209.448 122.713L214.405 137.993C214.546 138.432 215.098 138.559 215.423 138.234L218.343 135.313C218.626 135.031 219.079 135.031 219.362 135.313L220.323 136.275C220.606 136.558 220.606 137.011 220.323 137.293L216.137 141.479C215.897 141.72 215.897 142.116 216.137 142.356L217.87 144.089C218.11 144.329 218.506 144.329 218.746 144.089L222.932 139.903C223.215 139.62 223.668 139.62 223.951 139.903L224.898 140.85C225.181 141.133 225.181 141.585 224.898 141.868L220.712 146.054C220.472 146.295 220.472 146.691 220.712 146.931L224.806 151.025C225.117 151.336 225.117 151.846 224.806 152.157L222.883 154.08C222.572 154.391 222.063 154.391 221.752 154.08L217.657 149.986C217.417 149.745 217.021 149.745 216.781 149.986L212.686 154.08C212.404 154.363 211.951 154.363 211.668 154.08L210.721 153.133C210.438 152.85 210.438 152.397 210.721 152.114L214.815 148.02C215.055 147.78 215.055 147.384 214.815 147.143L213.082 145.411C212.842 145.171 212.446 145.171 212.206 145.411L208.112 149.505C207.829 149.788 207.376 149.788 207.093 149.505L206.132 148.543C205.849 148.261 205.849 147.808 206.132 147.525L209.08 144.577C209.406 144.251 209.271 143.707 208.84 143.558L193.559 138.601C193.107 138.46 192.965 137.88 193.305 137.541L195.511 135.335C195.801 135.045 196.239 134.946 196.621 135.087L210.346 140.101C210.749 140.249 211.145 139.853 210.997 139.45Z" fill="white"/>
<path d="M247.002 152.15L262.566 136.586L271.178 145.199L255.615 160.762L247.002 152.15Z" fill="#FFC06C"/>
</g>
<defs>
<clipPath id="clip0_28_53">
<rect width="128" height="128" fill="white" transform="translate(0.285751 90.6948) rotate(-45)"/>
</clipPath>
<clipPath id="clip1_28_53">
<rect width="96" height="96" fill="white" transform="translate(57.5614 238.48) rotate(-45)"/>
</clipPath>
<clipPath id="clip2_28_53">
<rect width="128" height="128" fill="white" transform="translate(145.95 126.05) rotate(-45)"/>
</clipPath>
</defs>
</svg>
