<svg width="128" height="127" viewBox="0 0 128 127" fill="none" xmlns="http://www.w3.org/2000/svg">
<path fill-rule="evenodd" clip-rule="evenodd" d="M64 0.511963C40.507 0.511963 21.455 19.559 21.455 43.057C21.455 61.854 33.645 77.802 50.55 83.427C52.676 83.821 53.457 82.504 53.457 81.38C53.457 80.366 53.417 77.014 53.399 73.46C41.562 76.033 39.065 68.44 39.065 68.44C37.13 63.522 34.341 62.214 34.341 62.214C30.481 59.574 34.631 59.628 34.631 59.628C38.904 59.928 41.154 64.013 41.154 64.013C44.948 70.517 51.107 68.636 53.534 67.549C53.917 64.799 55.019 62.921 56.236 61.859C46.786 60.784 36.852 57.135 36.852 40.833C36.852 36.188 38.514 32.393 41.236 29.413C40.794 28.341 39.338 24.013 41.648 18.153C41.648 18.153 45.22 17.011 53.348 22.516C56.743 21.573 60.383 21.1 63.998 21.084C67.614 21.101 71.256 21.574 74.656 22.516C82.776 17.012 86.344 18.154 86.344 18.154C88.66 24.014 87.204 28.341 86.762 29.414C89.49 32.392 91.14 36.188 91.14 40.834C91.14 57.174 81.187 60.772 71.713 61.824C73.239 63.144 74.599 65.734 74.599 69.704C74.599 75.396 74.551 79.977 74.551 81.378C74.551 82.508 75.317 83.836 77.473 83.418C94.369 77.786 106.543 61.844 106.543 43.053C106.545 19.56 87.497 0.511963 64 0.511963Z" fill="#181616"/>
<path d="M37.57 61.5959C37.475 61.8079 37.142 61.8709 36.84 61.7259C36.53 61.5859 36.358 61.2989 36.458 61.0859C36.548 60.8699 36.882 60.8089 37.191 60.9539C37.501 61.0939 37.676 61.3839 37.57 61.5959ZM39.293 63.5199C39.09 63.7069 38.693 63.6199 38.423 63.3219C38.145 63.0249 38.093 62.6279 38.299 62.4379C38.507 62.2499 38.892 62.3379 39.169 62.6349C39.449 62.9349 39.504 63.3279 39.292 63.5189L39.293 63.5199ZM40.97 65.9679C40.71 66.1499 40.283 65.9799 40.02 65.6009C39.758 65.2239 39.758 64.7709 40.025 64.5879C40.289 64.4059 40.709 64.5699 40.975 64.9449C41.237 65.3299 41.237 65.7839 40.97 65.9679ZM43.268 68.3359C43.035 68.5929 42.538 68.5239 42.175 68.1729C41.803 67.8299 41.7 67.3429 41.933 67.0859C42.17 66.8289 42.669 66.9009 43.035 67.2489C43.405 67.5909 43.517 68.0799 43.268 68.3359ZM46.44 69.7099C46.336 70.0439 45.858 70.1949 45.376 70.0539C44.894 69.9079 44.58 69.5179 44.676 69.1819C44.776 68.8459 45.258 68.6889 45.743 68.8399C46.223 68.9839 46.539 69.3699 46.44 69.7099ZM49.92 69.9649C49.933 70.3149 49.524 70.6069 49.018 70.6129C48.51 70.6249 48.098 70.3409 48.092 69.9949C48.092 69.6409 48.492 69.3529 49 69.3449C49.506 69.3349 49.92 69.6169 49.92 69.9649ZM53.16 69.4139C53.22 69.7559 52.87 70.1079 52.367 70.2009C51.873 70.2929 51.417 70.0809 51.353 69.7409C51.293 69.3909 51.65 69.0409 52.143 68.9489C52.646 68.8609 53.096 69.0659 53.16 69.4139Z" fill="#181616"/>
<path d="M24.855 107.302H14.155C14.0224 107.302 13.8952 107.355 13.8014 107.448C13.7077 107.542 13.655 107.669 13.655 107.802V113.034C13.655 113.167 13.7077 113.294 13.8014 113.388C13.8952 113.481 14.0224 113.534 14.155 113.534H18.328V120.034C18.328 120.034 17.391 120.354 14.798 120.354C11.742 120.354 7.471 119.238 7.471 109.846C7.471 100.453 11.919 99.216 16.095 99.216C19.709 99.216 21.265 99.852 22.257 100.159C22.567 100.253 22.857 99.943 22.857 99.667L24.05 94.612C24.0519 94.5363 24.0355 94.4613 24.002 94.3934C23.9686 94.3254 23.9192 94.2666 23.858 94.222C23.455 93.934 21.001 92.562 14.8 92.562C7.656 92.562 0.328003 95.6 0.328003 110.212C0.328003 124.822 8.718 126.999 15.788 126.999C21.642 126.999 25.193 124.497 25.193 124.497C25.339 124.417 25.355 124.212 25.355 124.117V107.801C25.355 107.668 25.3023 107.541 25.2086 107.447C25.1148 107.354 24.9876 107.302 24.855 107.302ZM79.506 93.81H73.48C73.4143 93.8103 73.3492 93.8235 73.2886 93.8489C73.2279 93.8744 73.1729 93.9115 73.1267 93.9582C73.0804 94.005 73.0438 94.0603 73.019 94.1212C72.9942 94.1821 72.9816 94.2473 72.982 94.313L72.984 105.957H63.592V94.313C63.5924 94.2474 63.5799 94.1823 63.5551 94.1214C63.5303 94.0606 63.4938 94.0053 63.4477 93.9586C63.4015 93.9119 63.3466 93.8747 63.2861 93.8492C63.2256 93.8237 63.1607 93.8104 63.095 93.81H57.07C57.0043 93.8103 56.9392 93.8235 56.8786 93.8489C56.818 93.8744 56.7629 93.9115 56.7167 93.9582C56.6704 94.005 56.6338 94.0603 56.609 94.1212C56.5842 94.1821 56.5716 94.2473 56.572 94.313V125.843C56.572 126.12 56.796 126.346 57.07 126.346H63.095C63.1608 126.346 63.2258 126.332 63.2864 126.307C63.3469 126.281 63.4019 126.244 63.448 126.197C63.4942 126.15 63.5307 126.095 63.5554 126.034C63.5801 125.973 63.5925 125.908 63.592 125.842V112.356H72.984L72.968 125.842C72.968 126.12 73.192 126.346 73.468 126.346H79.506C79.5717 126.346 79.6368 126.332 79.6973 126.307C79.7579 126.281 79.8129 126.244 79.859 126.197C79.9052 126.15 79.9417 126.095 79.9664 126.034C79.9911 125.973 80.0035 125.908 80.003 125.842V94.312C80.0037 94.2463 79.9913 94.1812 79.9666 94.1203C79.9419 94.0594 79.9054 94.004 79.8592 93.9573C79.813 93.9107 79.758 93.8736 79.6974 93.8483C79.6367 93.823 79.5717 93.81 79.506 93.81ZM32.34 94.527C30.196 94.527 28.456 96.28 28.456 98.45C28.456 100.617 30.196 102.375 32.34 102.375C34.486 102.375 36.225 100.617 36.225 98.45C36.225 96.28 34.485 94.527 32.34 94.527ZM35.296 104.135H29.29C29.014 104.135 28.768 104.419 28.768 104.695V125.547C28.768 126.16 29.15 126.342 29.644 126.342H35.054C35.649 126.342 35.794 126.05 35.794 125.537V104.638C35.7943 104.572 35.7816 104.507 35.7567 104.447C35.7318 104.386 35.6952 104.33 35.649 104.284C35.6027 104.237 35.5478 104.2 35.4872 104.175C35.4266 104.149 35.3617 104.135 35.296 104.135ZM102.902 104.182H96.922C96.8563 104.183 96.7914 104.196 96.731 104.222C96.6705 104.247 96.6157 104.284 96.5696 104.331C96.5236 104.378 96.4872 104.434 96.4625 104.494C96.4379 104.555 96.4255 104.62 96.426 104.686V120.146C96.426 120.146 94.906 121.256 92.751 121.256C90.596 121.256 90.024 120.279 90.024 118.168V104.686C90.0245 104.62 90.0121 104.555 89.9874 104.494C89.9627 104.433 89.9262 104.378 89.88 104.331C89.8339 104.284 89.7789 104.247 89.7183 104.221C89.6578 104.196 89.5927 104.182 89.527 104.182H83.459C83.3262 104.183 83.1992 104.237 83.1059 104.331C83.0126 104.426 82.9605 104.553 82.961 104.686V119.188C82.961 125.458 86.456 126.992 91.263 126.992C95.207 126.992 98.387 124.812 98.387 124.812C98.387 124.812 98.537 125.962 98.607 126.097C98.677 126.233 98.854 126.37 99.047 126.37L102.907 126.353C102.973 126.353 103.038 126.34 103.099 126.314C103.16 126.289 103.215 126.251 103.261 126.205C103.308 126.158 103.345 126.102 103.37 126.041C103.395 125.98 103.407 125.915 103.407 125.849L103.404 104.683C103.403 104.55 103.351 104.423 103.257 104.329C103.163 104.235 103.037 104.182 102.904 104.181L102.902 104.182ZM119.244 103.474C115.848 103.474 113.538 104.989 113.538 104.989V94.312C113.538 94.2464 113.526 94.1813 113.501 94.1204C113.476 94.0596 113.44 94.0043 113.394 93.9576C113.348 93.9109 113.293 93.8737 113.232 93.8482C113.172 93.8227 113.107 93.8094 113.041 93.809H107C106.934 93.809 106.869 93.822 106.808 93.8474C106.747 93.8727 106.692 93.9098 106.645 93.9565C106.599 94.0033 106.562 94.0587 106.537 94.1198C106.512 94.1808 106.5 94.2461 106.5 94.312V125.842C106.5 125.908 106.512 125.973 106.537 126.034C106.562 126.095 106.599 126.151 106.645 126.198C106.692 126.244 106.747 126.281 106.808 126.307C106.869 126.332 106.934 126.345 107 126.345H111.192C111.382 126.345 111.524 126.248 111.629 126.077C111.732 125.907 111.883 124.623 111.883 124.623C111.883 124.623 114.353 126.963 119.031 126.963C124.521 126.963 127.671 124.179 127.671 114.461C127.671 104.743 122.641 103.473 119.243 103.473L119.244 103.474ZM116.884 121.238C114.811 121.175 113.404 120.234 113.404 120.234V110.249C113.404 110.249 114.792 109.399 116.494 109.245C118.647 109.052 120.722 109.703 120.722 114.839C120.722 120.256 119.787 121.325 116.885 121.237L116.884 121.238ZM53.195 121.12C52.932 121.12 52.258 121.227 51.565 121.227C49.345 121.227 48.592 120.195 48.592 118.859V109.993H53.112C53.178 109.993 53.2434 109.98 53.3043 109.955C53.3652 109.929 53.4205 109.892 53.467 109.845C53.5135 109.798 53.5502 109.743 53.5751 109.682C53.6 109.62 53.6125 109.555 53.612 109.489V104.633C53.6123 104.567 53.5995 104.502 53.5745 104.441C53.5495 104.38 53.5127 104.325 53.4663 104.278C53.4198 104.232 53.3646 104.195 53.3038 104.169C53.243 104.144 53.1778 104.131 53.112 104.131H48.592L48.585 98.161C48.585 97.934 48.469 97.821 48.207 97.821H42.047C41.809 97.821 41.68 97.927 41.68 98.156V104.326C41.68 104.326 38.593 105.071 38.385 105.131C38.2811 105.161 38.1899 105.224 38.125 105.311C38.0601 105.398 38.025 105.503 38.025 105.611V109.488C38.0246 109.554 38.0371 109.619 38.0619 109.68C38.0867 109.74 38.1232 109.796 38.1693 109.842C38.2155 109.889 38.2704 109.926 38.3309 109.952C38.3914 109.977 38.4563 109.991 38.522 109.991H41.68V119.319C41.68 126.249 46.54 126.929 49.82 126.929C51.317 126.929 53.11 126.449 53.406 126.339C53.586 126.272 53.689 126.087 53.689 125.886L53.693 121.621C53.691 121.489 53.6377 121.363 53.5444 121.269C53.4511 121.175 53.3252 121.122 53.193 121.119L53.195 121.12Z" fill="#100E0F"/>
</svg>
